HIERARCHY
ROOT Joint1
{
	OFFSET 0.000000 0.000000 0.000000
	CHANNELS 6 Xposition Yposition Zposition Xrotation Yrotation Zrotation
	JOINT Joint2
	{
		OFFSET -0.000000 0.000000 1.456275
		CHANNELS 6 Xposition Yposition Zposition Xrotation Yrotation Zrotation
		JOINT Joint3
		{
			OFFSET -0.000000 0.000002 1.471446
			CHANNELS 6 Xposition Yposition Zposition Xrotation Yrotation Zrotation
			JOINT Joint4
			{
				OFFSET 0.625745 0.000000 0.917755
				CHANNELS 6 Xposition Yposition Zposition Xrotation Yrotation Zrotation
				JOINT Joint5
				{
					OFFSET -0.629534 0.000001 0.940221
					CHANNELS 6 Xposition Yposition Zposition Xrotation Yrotation Zrotation
					JOINT Joint6
					{
						OFFSET -0.000001 0.113772 1.960660
						CHANNELS 6 Xposition Yposition Zposition Xrotation Yrotation Zrotation
						JOINT Joint7
						{
							OFFSET -0.669733 -0.113771 0.388340
							CHANNELS 6 Xposition Yposition Zposition Xrotation Yrotation Zrotation
							End Site
							{
								OFFSET 0.005509 0.005509 0.438980
							}
						}
					}
				}
			}
		}
	}
}
MOTION
Frames: 12
Frame Time: 0.041667
0.000000 0.000000 0.000000 -0.000000 1.019410 -47.830128 -0.000000 0.000000 1.456275 -0.000003 -40.244605 0.000001 -0.000000 0.000002 1.471446 0.000001 -1.133456 35.570266 0.625745 0.000000 0.917754 0.000008 125.186439 -0.000002 -0.629533 0.000001 0.940221 0.000000 1.709737 -15.316633 -0.000002 0.113772 1.960660 -88.303862 103.109915 0.000010 -0.669734 -0.113771 0.388340 0.083896 3.191108 84.109449 
0.000000 0.000000 0.000000 -0.000000 1.019410 -46.116959 -0.000000 0.000000 1.456275 -0.000002 -40.414349 -0.000001 -0.000000 0.000002 1.471446 0.000001 -1.133455 34.294933 0.625744 0.000000 0.917755 0.000008 125.538672 0.000000 -0.629534 0.000001 0.940220 -0.000002 1.709737 -14.768367 -0.000001 0.113771 1.960660 -88.303855 102.639329 0.000013 -0.669734 -0.113771 0.388340 0.063090 3.215845 85.931074 
0.000000 0.000000 0.000000 -0.000000 1.019410 -44.540162 -0.000000 0.000000 1.456275 0.000001 -40.570583 0.000001 -0.000000 0.000002 1.471446 -0.000002 -1.133454 33.121127 0.625745 0.000000 0.917755 0.000008 125.862874 -0.000001 -0.629534 0.000001 0.940221 0.000003 1.709737 -14.263746 -0.000001 0.113772 1.960661 -88.303862 102.206193 0.000014 -0.669734 -0.113771 0.388340 0.043247 3.238022 87.607742 
0.000000 0.000000 0.000000 -0.000000 1.019410 -43.231457 -0.000000 0.000000 1.456275 -0.000001 -40.700250 -0.000003 -0.000000 0.000002 1.471446 -0.000000 -1.133455 32.146886 0.625745 0.000000 0.917755 0.000006 126.131956 -0.000004 -0.629534 0.000001 0.940221 -0.000000 1.709738 -13.844923 -0.000001 0.113772 1.960660 -88.303862 101.846699 0.000008 -0.669733 -0.113771 0.388340 0.026296 3.255980 88.999373 
0.000000 0.000000 0.000000 -0.000000 1.019410 -42.082674 -0.000000 0.000000 1.456275 0.000002 -40.814072 -0.000002 -0.000001 0.000002 1.471445 -0.000001 -1.133459 31.291699 0.625745 0.000001 0.917755 0.000001 126.368144 -0.000003 -0.629533 0.000001 0.940221 0.000003 1.709737 -13.477278 -0.000000 0.113772 1.960660 -88.303882 101.531138 0.000009 -0.669733 -0.113771 0.388340 0.011050 3.271404 90.220973 
0.000000 0.000000 0.000000 -0.000000 1.019410 -40.925688 -0.000000 -0.000000 1.456275 0.000001 -40.928706 0.000001 -0.000000 0.000002 1.471446 -0.000000 -1.133459 30.430395 0.625745 0.000001 0.917755 0.000004 126.606026 -0.000001 -0.629533 0.000001 0.940221 0.000001 1.709737 -13.107007 -0.000001 0.113772 1.960660 -88.303862 101.213322 0.000014 -0.669733 -0.113771 0.388341 -0.004625 3.286605 91.451322 
0.000000 0.000000 0.000000 -0.000000 1.019410 -39.592342 -0.000000 0.000000 1.456275 0.000000 -41.060809 -0.000002 -0.000000 0.000002 1.471446 0.000000 -1.133460 29.437828 0.625745 0.000000 0.917755 0.000005 126.880162 -0.000001 -0.629534 0.000001 0.940220 0.000001 1.709737 -12.680300 -0.000001 0.113772 1.960661 -88.303868 100.847060 0.000014 -0.669733 -0.113771 0.388340 -0.023092 3.303704 92.869228 
0.000000 0.000000 0.000000 -0.000000 1.019410 -37.980889 -0.000000 -0.000000 1.456275 -0.000002 -41.220479 0.000000 -0.000000 0.000002 1.471446 0.000002 -1.133457 28.238213 0.625745 0.000000 0.917755 0.000003 127.211481 -0.000001 -0.629534 0.000001 0.940221 0.000001 1.709736 -12.164593 -0.000001 0.113772 1.960660 -88.303875 100.404409 0.000019 -0.669733 -0.113771 0.388340 -0.045972 3.323748 94.582930 
0.000000 0.000000 0.000000 -0.000000 1.019410 -36.254955 -0.000000 0.000000 1.456275 0.000000 -41.391486 -0.000002 -0.000000 0.000002 1.471446 -0.000001 -1.133461 26.953385 0.625745 0.000000 0.917755 0.000005 127.566350 -0.000001 -0.629534 0.000001 0.940221 0.000000 1.709736 -11.612241 -0.000000 0.113772 1.960661 -88.303862 99.930305 0.000010 -0.669733 -0.113771 0.388340 -0.071129 3.344453 96.418427 
0.000000 0.000000 0.000000 -0.000000 1.019410 -34.644533 -0.000000 0.000000 1.456275 -0.000001 -41.551049 -0.000000 -0.000001 0.000002 1.471446 0.000001 -1.133460 25.754533 0.625744 0.000000 0.917755 0.000006 127.897464 -0.000000 -0.629534 0.000001 0.940221 0.000001 1.709736 -11.096859 -0.000001 0.113772 1.960661 -88.303868 99.487934 0.000016 -0.669733 -0.113771 0.388340 -0.095193 3.363035 98.131117 
0.000000 0.000000 0.000000 -0.000000 1.019410 -33.313032 -0.000000 0.000000 1.456275 0.000001 -41.682978 0.000001 -0.000000 0.000002 1.471446 -0.000001 -1.133456 24.763322 0.625745 0.000000 0.917755 0.000004 128.171232 0.000000 -0.629534 0.000001 0.940221 -0.000002 1.709736 -10.670742 -0.000001 0.113772 1.960661 -88.303862 99.122178 0.000021 -0.669733 -0.113771 0.388340 -0.115500 3.377853 99.547200 
0.000000 0.000000 0.000000 -0.000000 1.019410 -32.157548 -0.000000 0.000000 1.456275 -0.000002 -41.797452 -0.000002 -0.000000 0.000002 1.471446 -0.000001 -1.133455 23.903149 0.625745 0.000000 0.917755 0.000003 128.408799 -0.000002 -0.629533 0.000001 0.940221 0.000001 1.709737 -10.300956 -0.000001 0.113772 1.960660 -88.303855 98.804779 0.000013 -0.669733 -0.113771 0.388341 -0.133415 3.390302 100.776115 
